<?xml version="1.0" encoding="UTF-8" standalone="no"?>
<!-- Created with Inkscape (http://www.inkscape.org/) -->

<svg
   width="100.66506mm"
   height="66.175941mm"
   viewBox="0 0 100.66506 66.175942"
   version="1.1"
   id="svg1"
   xml:space="preserve"
   sodipodi:docname="watermark.svg"
   inkscape:version="1.4 (86a8ad7, 2024-10-11)"
   xmlns:inkscape="http://www.inkscape.org/namespaces/inkscape"
   xmlns:sodipodi="http://sodipodi.sourceforge.net/DTD/sodipodi-0.dtd"
   xmlns="http://www.w3.org/2000/svg"
   xmlns:svg="http://www.w3.org/2000/svg"><sodipodi:namedview
     id="namedview1"
     pagecolor="#ffffff"
     bordercolor="#000000"
     borderopacity="0.25"
     inkscape:showpageshadow="2"
     inkscape:pageopacity="0.0"
     inkscape:pagecheckerboard="0"
     inkscape:deskcolor="#d1d1d1"
     inkscape:document-units="mm"
     inkscape:zoom="1.7174877"
     inkscape:cx="58.806826"
     inkscape:cy="113.82905"
     inkscape:window-width="3440"
     inkscape:window-height="1417"
     inkscape:window-x="-8"
     inkscape:window-y="-8"
     inkscape:window-maximized="1"
     inkscape:current-layer="svg1" /><defs
     id="defs1" /><g
     id="layer1"
     transform="translate(-15.197447,-75.51882)"><path
       style="fill:#e0da74;fill-opacity:0.20843373;stroke:none;stroke-opacity:1"
       d="m 49.170893,140.19093 c 8.120244,-2.66396 16.9078,-6.6212 23.65853,-12.40383 5.71847,-4.8984 11.1008,-11.7672 14.48897,-18.49048 0.56835,-1.12779 1.1328,-2.05052 1.25434,-2.05052 0.12154,0 0.56669,0.1724 0.989229,0.38312 1.21626,0.60654 3.80478,1.20438 5.21473,1.20438 h 1.29258 l -0.84667,1.52135 c -2.45597,4.41303 -7.450999,11.03738 -10.701149,14.19173 -1.51557,1.4709 -4.3689,3.93661 -5.51121,4.76252 -0.61349,0.44357 -1.17497,0.8805 -1.24773,0.97095 -0.17564,0.21836 -3.43348,2.31287 -5.42396,3.48714 -3.75917,2.21771 -8.263124,4.11791 -13.025701,5.30235 -3.285978,0.81721 -7.234797,1.69237 -9.064927,2.07368 -3.337307,0.69532 -7.210623,1.05982 -1.077032,-0.95239 z M 33.444799,124.02428 c -0.43657,-0.0584 -2.10344,-0.23628 -3.70417,-0.39519 -2.73282,-0.2713 -8.70435,-1.20765 -9.85868,-1.54585 -0.27652,-0.081 3.04173,-4.0952 5.27851,-6.38554 6.72383,-6.88484 14.492654,-12.22884 22.260584,-15.31255 7.71721,-3.063569 16.61159,-4.723929 26.24042,-4.898429 2.91042,-0.0528 4.75589,-0.0497 4.10105,0.007 -11.66257,1.00664 -19.83269,3.02847 -28.83959,7.136819 -2.72094,1.24111 -7.88386,4.19944 -10.5486,6.04428 -1.0723,0.74237 -2.210404,1.52836 -2.529124,1.74665 -2.37292,1.62516 -10.73478,9.26934 -10.73478,9.81343 0,0.24084 1.81732,0.64598 5.15938,1.1502 9.396474,1.41764 21.744064,1.1644 30.664784,-0.6289 1.32447,-0.26626 2.44758,-0.44847 2.4958,-0.40491 0.33474,0.30238 -8.25917,2.43124 -12.91996,3.2005 -2.385,0.39364 -15.037894,0.74406 -17.065624,0.47263 z m 57.679163,-16.74266 c -7.454859,-2.14216 -11.440899,-9.927479 -8.747079,-17.084309 1.73116,-4.59927 5.62952,-7.70033 10.489549,-8.34422 2.10276,-0.27859 2.27032,-0.34936 3.01988,-1.27534 0.43648,-0.539213 1.12108,-1.274793 1.52135,-1.634623 0.40027,-0.35982 0.66346,-0.500281 1.15554,-0.82985 2.554888,-1.711132 4.263158,-2.626213 7.779498,-2.593616 1.76656,0.0839 3.46922,0.322296 4.62501,0.794996 1.40994,0.57663 1.66937,0.60972 2.31937,0.29585 1.26332,-0.61002 2.57543,0.17993 2.57543,1.55055 0,1.73375 -2.1058,2.470903 -3.17513,1.11147 -0.33229,-0.42244 -0.52089,-0.96657 -0.45481,-1.3122 0.1005,-0.52577 -0.0496,-0.62692 -1.36974,-0.92288 -4.55483,-1.02116 -8.94023,0.20748 -12.264388,3.436063 -1.979,1.9221 -1.68859,2.03703 1.785938,0.70679 3.06208,-1.172333 7.83421,-0.896513 10.09274,0.58334 0.51688,0.33867 0.76071,0.35438 1.39869,0.0901 1.95293,-0.80893 3.60279,1.4348 2.13461,2.90298 -1.1187,1.1187 -3.04271,0.25587 -3.04271,-1.36453 0,-0.79443 -0.1052,-0.9169 -1.05833,-1.23204 -1.87083,-0.61855 -4.37116,-0.68892 -6.64216,-0.18693 -3.2055,0.70856 -3.335008,0.83583 -1.76367,1.73326 2.90845,1.66109 5.43465,5.62437 5.9748,9.37367 0.5356,3.7178 -0.77116,7.611409 -3.55233,10.584489 -3.3161,3.54492 -8.225618,4.93201 -12.802058,3.61696 z M 37.524733,99.500871 c -4.786414,-2.41448 -11.082804,-6.56472 -15.220064,-10.03226 -4.49452,-3.76696 -7.38358,-6.54163 -7.08625,-6.80567 0.53304,-0.47335 6.29126,-2.14861 9.49513,-2.762463 14.195664,-2.71984 25.443324,-1.55859 38.629164,3.988213 4.53845,1.90916 13.0091,6.53 14.72771,8.03415 0.66429,0.58139 0.77166,0.63303 -3.48291,-1.67523 -2.54555,-1.38106 -7.40672,-3.43937 -10.99342,-4.65483 -13.05741,-4.42489 -26.94079,-5.17114 -40.575594,-2.18098 -1.36884,0.30019 -2.54666,0.60366 -2.61739,0.67439 -0.49153,0.49154 6.71459,6.62982 12.64681,10.77274 1.59867,1.11648 7.385304,4.61868 9.083184,5.497349 0.69023,0.3572 0.71102,0.41148 0.27869,0.7276 -0.25694,0.18789 -0.60275,0.34161 -0.76845,0.34161 -0.1657,0 -2.01818,-0.86608 -4.11661,-1.924619 z"
       id="path1" /></g></svg>
